# xmcd
#
# Track frame offsets:
# 150
# 19063
# 37024
# 54819
# 70469
# 84567
# 100908
# 120277
# 134678
# 154230
#
# Disc length: 2175 seconds
#
#
# Revision: 0
# Processed by: cddbd v1.5.1PL2 Copyright (c) Steve Scherf et al.
# Submitted via: FreeRIP 2.40 
#
DISCID=81087d0a
DTITLE=Eagles - On The Border
DYEAR=1974
DGENRE=Country Rock
TTITLE0=Already Gone
TTITLE1=You Never Cry Like A Lover
TTITLE2=Midnight Flyer
TTITLE3=My Man
TTITLE4=On the Border
TTITLE5=James Dean
TTITLE6=Ol' 55
TTITLE7=Is It True?
TTITLE8=Good Day In Hell
TTITLE9=The Best Of My Love
EXTD=
EXTT0=
EXTT1=
EXTT2=
EXTT3=
EXTT4=
EXTT5=
EXTT6=
EXTT7=
EXTT8=
EXTT9=
PLAYORDER=
